<svg viewBox="0 0 96 96" xmlns="http://www.w3.org/2000/svg" xmlns:xlink="http://www.w3.org/1999/xlink" id="Icons_ForkInRoad1" overflow="hidden"><path d="M90 25C89.9995 24.0055 89.5062 23.0759 88.683 22.518L75.021 8.877C73.858 7.69693 71.9585 7.68311 70.7785 8.84613 69.5984 10.0091 69.5846 11.9086 70.7476 13.0887 70.759 13.1002 70.7704 13.1116 70.782 13.123L79.676 22 74 22C62.9635 22.0109 52.8877 28.2788 48 38.174 43.1124 28.2787 33.0366 22.0107 22 22L16.33 22 25.224 13.123C26.406 11.9619 26.4229 10.0625 25.2619 8.88053 24.1008 7.69854 22.2014 7.68159 21.0194 8.84266 21.0078 8.85401 20.9964 8.86546 20.985 8.877L7.319 22.518C6.49418 23.0747 5.99987 24.0049 6 25 6 25.013 6 25.024 6 25.037 6 25.05 6 25.062 6 25.074 5.99937 25.8716 6.31639 26.6366 6.881 27.2L20.844 41.159C22.0249 42.3211 23.9244 42.3059 25.0865 41.125 26.2353 39.9576 26.2355 38.0846 25.087 36.917L16.17 28 22 28C34.6966 28.0143 44.9857 38.3034 45 51L45 85C45 86.6569 46.3431 88 48 88L48 88C49.6569 88 51 86.6569 51 85L51 51C51.0138 38.3032 61.3032 28.0138 74 28L79.832 28 70.92 36.917C69.7391 38.0791 69.7238 39.9786 70.8859 41.1595 72.0481 42.3404 73.9475 42.3557 75.1284 41.1936 75.1401 41.1821 75.1516 41.1706 75.163 41.159L89.125 27.2C89.6874 26.6356 90.0022 25.8707 90 25.074 90 25.062 90 25.049 90 25.037 90 25.025 90 25.013 90 25Z"/></svg>